<svg width="100%" height="100%" id="svg" viewBox="0 0 1440 500" xmlns="http://www.w3.org/2000/svg" class="transition duration-300 ease-in-out delay-150"><defs><linearGradient id="gradient" x1="0%" y1="50%" x2="100%" y2="50%"><stop offset="5%" stop-color="#002bdc"></stop><stop offset="95%" stop-color="#32ded4"></stop></linearGradient></defs><path d="M 0,500 C 0,500 0,166 0,166 C 66.44615384615386,180.17435897435897 132.89230769230772,194.34871794871793 226,199 C 319.1076923076923,203.65128205128207 438.87692307692305,198.7794871794872 520,191 C 601.123076923077,183.2205128205128 643.5999999999999,172.53333333333333 724,180 C 804.4000000000001,187.46666666666667 922.7230769230771,213.0871794871795 998,215 C 1073.276923076923,216.9128205128205 1105.5076923076922,195.11794871794874 1172,183 C 1238.4923076923078,170.88205128205126 1339.246153846154,168.44102564102565 1440,166 C 1440,166 1440,500 1440,500 Z" stroke="none" stroke-width="0" fill="url(#gradient)" fill-opacity="0.53" class="transition-all duration-300 ease-in-out delay-150 path-0"></path><defs><linearGradient id="gradient" x1="0%" y1="50%" x2="100%" y2="50%"><stop offset="5%" stop-color="#002bdc"></stop><stop offset="95%" stop-color="#32ded4"></stop></linearGradient></defs><path d="M 0,500 C 0,500 0,333 0,333 C 91.53333333333333,302.62307692307695 183.06666666666666,272.24615384615385 267,280 C 350.93333333333334,287.75384615384615 427.26666666666665,333.6384615384615 488,352 C 548.7333333333333,370.3615384615385 593.8666666666667,361.2 679,340 C 764.1333333333333,318.8 889.2666666666669,285.5615384615384 979,285 C 1068.7333333333331,284.4384615384616 1123.0666666666666,316.55384615384617 1194,330 C 1264.9333333333334,343.44615384615383 1352.4666666666667,338.2230769230769 1440,333 C 1440,333 1440,500 1440,500 Z" stroke="none" stroke-width="0" fill="url(#gradient)" fill-opacity="1" class="transition-all duration-300 ease-in-out delay-150 path-1"></path></svg>